<svg width="84" height="84" viewBox="0 0 84 84" fill="none" xmlns="http://www.w3.org/2000/svg">
<path d="M8 42C8 23.2223 23.2223 8 42 8V8C60.7777 8 76 23.2223 76 42V42C76 60.7777 60.7777 76 42 76V76C23.2223 76 8 60.7777 8 42V42Z" fill="#F27807"/>
<path d="M42.0053 25.2772C47.4562 25.2772 48.0961 25.3015 50.2506 25.3987C52.2431 25.4878 53.3203 25.8199 54.0412 26.1033C54.9969 26.4759 55.6773 26.9133 56.39 27.6261C57.1028 28.3388 57.5482 29.0192 57.9127 29.9749C58.1881 30.6958 58.5283 31.773 58.6174 33.7655C58.7146 35.92 58.7389 36.5598 58.7389 42.0108C58.7389 47.4618 58.7146 48.1016 58.6174 50.2561C58.5283 52.2486 58.1962 53.3258 57.9127 54.0467C57.5401 55.0024 57.1028 55.6828 56.39 56.3956C55.6773 57.1083 54.9969 57.5538 54.0412 57.9183C53.3203 58.1936 52.2431 58.5338 50.2506 58.6229C48.0961 58.7201 47.4562 58.7444 42.0053 58.7444C36.5543 58.7444 35.9144 58.7201 33.7599 58.6229C31.7674 58.5338 30.6902 58.2017 29.9694 57.9183C29.0136 57.5457 28.3332 57.1083 27.6205 56.3956C26.9077 55.6828 26.4623 55.0024 26.0978 54.0467C25.8224 53.3258 25.4822 52.2486 25.3931 50.2561C25.2959 48.1016 25.2716 47.4618 25.2716 42.0108C25.2716 36.5598 25.2959 35.92 25.3931 33.7655C25.4822 31.773 25.8143 30.6958 26.0978 29.9749C26.4704 29.0192 26.9077 28.3388 27.6205 27.6261C28.3332 26.9133 29.0136 26.4678 29.9694 26.1033C30.6902 25.828 31.7674 25.4878 33.7599 25.3987C35.9144 25.2934 36.5624 25.2772 42.0053 25.2772ZM42.0053 21.6C36.4652 21.6 35.7686 21.6243 33.5898 21.7215C31.4192 21.8187 29.937 22.167 28.641 22.6691C27.2965 23.1875 26.1626 23.8922 25.0286 25.0261C23.8947 26.16 23.1981 27.3021 22.6717 28.6385C22.1695 29.9344 21.8212 31.4166 21.724 33.5954C21.6268 35.7661 21.6025 36.4626 21.6025 42.0027C21.6025 47.5428 21.6268 48.2393 21.724 50.4181C21.8212 52.5888 22.1695 54.071 22.6717 55.375C23.19 56.7195 23.8947 57.8535 25.0286 58.9874C26.1626 60.1213 27.3046 60.8179 28.641 61.3444C29.937 61.8465 31.4192 62.1948 33.5979 62.292C35.7767 62.3892 36.4652 62.4135 42.0134 62.4135C47.5615 62.4135 48.25 62.3892 50.4288 62.292C52.5994 62.1948 54.0816 61.8465 55.3857 61.3444C56.7302 60.826 57.8641 60.1213 58.9981 58.9874C60.132 57.8535 60.8286 56.7114 61.355 55.375C61.8572 54.0791 62.2055 52.5969 62.3027 50.4181C62.3999 48.2393 62.4242 47.5509 62.4242 42.0027C62.4242 36.4545 62.3999 35.7661 62.3027 33.5873C62.2055 31.4166 61.8572 29.9344 61.355 28.6304C60.8367 27.2859 60.132 26.1519 58.9981 25.018C57.8641 23.8841 56.7221 23.1875 55.3857 22.661C54.0897 22.1589 52.6075 21.8106 50.4288 21.7134C48.2419 21.6243 47.5453 21.6 42.0053 21.6Z" fill="white"/>
<path d="M42.0052 31.53C36.2221 31.53 31.5244 36.2196 31.5244 42.0108C31.5244 47.8019 36.214 52.4916 42.0052 52.4916C47.7964 52.4916 52.486 47.8019 52.486 42.0108C52.486 36.2196 47.7964 31.53 42.0052 31.53ZM42.0052 48.8063C38.247 48.8063 35.2016 45.7609 35.2016 42.0027C35.2016 38.2445 38.247 35.1991 42.0052 35.1991C45.7634 35.1991 48.8088 38.2445 48.8088 42.0027C48.8088 45.7609 45.7634 48.8063 42.0052 48.8063Z" fill="white"/>
<path d="M52.8992 33.5549C54.2501 33.5549 55.3452 32.4598 55.3452 31.1088C55.3452 29.7579 54.2501 28.6628 52.8992 28.6628C51.5483 28.6628 50.4531 29.7579 50.4531 31.1088C50.4531 32.4598 51.5483 33.5549 52.8992 33.5549Z" fill="white"/>
<path d="M42 68C27.6406 68 16 56.3594 16 42H0C0 65.196 18.804 84 42 84V68ZM68 42C68 56.3594 56.3594 68 42 68V84C65.196 84 84 65.196 84 42H68ZM42 16C56.3594 16 68 27.6406 68 42H84C84 18.804 65.196 0 42 0V16ZM42 0C18.804 0 0 18.804 0 42H16C16 27.6406 27.6406 16 42 16V0Z" fill="black"/>
</svg>
