<svg width="84" height="84" viewBox="0 0 84 84" fill="none" xmlns="http://www.w3.org/2000/svg">
<path d="M8 42C8 23.2223 23.2223 8 42 8V8C60.7777 8 76 23.2223 76 42V42C76 60.7777 60.7777 76 42 76V76C23.2223 76 8 60.7777 8 42V42Z" fill="url(#paint0_linear_24_96)"/>
<path fill-rule="evenodd" clip-rule="evenodd" d="M23.3909 41.6412C33.3026 37.3228 39.9119 34.4759 43.2189 33.1004C52.6611 29.1731 54.6231 28.4908 55.9019 28.4683C56.1832 28.4634 56.812 28.5331 57.2194 28.8636C57.5634 29.1427 57.658 29.5198 57.7033 29.7844C57.7486 30.049 57.805 30.6518 57.7601 31.1228C57.2485 36.499 55.0345 49.5457 53.9081 55.5671C53.4315 58.115 52.493 58.9693 51.5845 59.0529C49.6101 59.2346 48.1108 57.748 46.1984 56.4945C43.206 54.5329 41.5154 53.3118 38.6108 51.3977C35.2539 49.1855 37.43 47.9697 39.3431 45.9827C39.8437 45.4627 48.5432 37.5499 48.7116 36.8321C48.7326 36.7423 48.7522 36.4077 48.5534 36.231C48.3546 36.0543 48.0611 36.1147 47.8494 36.1628C47.5493 36.2309 42.7688 39.3906 33.508 45.6419C32.1511 46.5736 30.922 47.0276 29.8208 47.0038C28.6069 46.9776 26.2716 46.3174 24.5357 45.7531C22.4064 45.061 20.7141 44.6951 20.8615 43.5196C20.9382 42.9074 21.7814 42.2812 23.3909 41.6412Z" fill="white"/>
<path d="M42 68C27.6406 68 16 56.3594 16 42H0C0 65.196 18.804 84 42 84V68ZM68 42C68 56.3594 56.3594 68 42 68V84C65.196 84 84 65.196 84 42H68ZM42 16C56.3594 16 68 27.6406 68 42H84C84 18.804 65.196 0 42 0V16ZM42 0C18.804 0 0 18.804 0 42H16C16 27.6406 27.6406 16 42 16V0Z" fill="black"/>
<defs>
<linearGradient id="paint0_linear_24_96" x1="42" y1="8" x2="42" y2="75.4957" gradientUnits="userSpaceOnUse">
<stop stop-color="#F27807"/>
<stop offset="1" stop-color="#F27807"/>
</linearGradient>
</defs>
</svg>
