<svg width="85" height="85" viewBox="0 0 85 85" fill="none" xmlns="http://www.w3.org/2000/svg">
<path d="M8 42.5C8 23.4462 23.4462 8 42.5 8V8C61.5538 8 77 23.4462 77 42.5V42.5C77 61.5538 61.5538 77 42.5 77V77C23.4462 77 8 61.5538 8 42.5V42.5Z" fill="#F27807"/>
<path d="M36.1864 60.6988C51.4871 60.6988 59.8534 48.02 59.8534 37.0318C59.8534 36.6695 59.8534 36.3073 59.8361 35.9623C61.4576 34.7893 62.8721 33.323 63.9934 31.6498C62.5099 32.3053 60.9056 32.7538 59.2151 32.9608C60.9401 31.9258 62.2511 30.3043 62.8721 28.355C61.2679 29.3038 59.4911 29.9938 57.5936 30.3733C56.0756 28.7518 53.9194 27.7513 51.5216 27.7513C46.9331 27.7513 43.2071 31.4773 43.2071 36.0658C43.2071 36.7213 43.2761 37.3595 43.4314 37.9633C36.5141 37.6183 30.3904 34.3063 26.2849 29.2693C25.5776 30.494 25.1636 31.9258 25.1636 33.4438C25.1636 36.3245 26.6299 38.8775 28.8724 40.361C27.5096 40.3265 26.2331 39.947 25.1119 39.326C25.1119 39.3605 25.1119 39.395 25.1119 39.4295C25.1119 43.466 27.9754 46.8125 31.7876 47.5888C31.0976 47.7785 30.3559 47.882 29.5969 47.882C29.0621 47.882 28.5446 47.8303 28.0271 47.7268C29.0794 51.0388 32.1499 53.4365 35.7896 53.5055C32.9434 55.7308 29.3554 57.059 25.4569 57.059C24.7841 57.059 24.1286 57.0245 23.4731 56.9383C27.1129 59.3188 31.4944 60.6988 36.1864 60.6988Z" fill="white"/>
<path d="M42.5 69C27.8645 69 16 57.1355 16 42.5H0C0 65.9721 19.0279 85 42.5 85V69ZM69 42.5C69 57.1355 57.1355 69 42.5 69V85C65.9721 85 85 65.9721 85 42.5H69ZM42.5 16C57.1355 16 69 27.8645 69 42.5H85C85 19.0279 65.9721 0 42.5 0V16ZM42.5 0C19.0279 0 0 19.0279 0 42.5H16C16 27.8645 27.8645 16 42.5 16V0Z" fill="black"/>
</svg>
