<svg width="182" height="771" viewBox="0 0 182 771" fill="none" xmlns="http://www.w3.org/2000/svg">
<g filter="url(#filter0_i_24_126)">
<path d="M181 95.6461V344.092C143.258 296.769 82.7113 277.051 63.0539 273.108V190.292L-102.068 131.138L-243.601 190.292C-190.528 308.6 -255.395 273.108 -19.5069 296.769C169.204 315.698 184.929 462.4 169.204 533.385L-90.2733 770L-361.545 533.385C-361.545 474.231 -361.544 358.289 -361.543 367.754C-361.541 377.218 -282.914 426.908 -243.601 450.569V486.061L-90.2733 616.2C-43.0957 588.595 39.4651 509.723 51.2596 486.061C68.1383 452.2 4.08191 422.964 -19.5069 415.077C-27.3692 415.077 -78.4769 412.711 -220.01 403.246C-361.543 393.782 -373.337 194.236 -361.543 95.6461L-102.066 1L181 95.6461Z" fill="#F27807"/>
</g>
<path d="M181 95.6461V344.092C143.258 296.769 82.7113 277.051 63.0539 273.108V190.292L-102.068 131.138L-243.601 190.292C-190.528 308.6 -255.395 273.108 -19.5069 296.769C169.204 315.698 184.929 462.4 169.204 533.385L-90.2733 770L-361.545 533.385C-361.545 474.231 -361.544 358.289 -361.543 367.754C-361.541 377.218 -282.914 426.908 -243.601 450.569V486.061L-90.2733 616.2C-43.0957 588.595 39.4651 509.723 51.2596 486.061C68.1383 452.2 4.08191 422.964 -19.5069 415.077C-27.3692 415.077 -78.4769 412.711 -220.01 403.246C-361.543 393.782 -373.337 194.236 -361.543 95.6461L-102.066 1L181 95.6461Z" stroke="black"/>
<defs>
<filter id="filter0_i_24_126" x="-365.5" y="0.470337" width="547" height="774.2" filterUnits="userSpaceOnUse" color-interpolation-filters="sRGB">
<feFlood flood-opacity="0" result="BackgroundImageFix"/>
<feBlend mode="normal" in="SourceGraphic" in2="BackgroundImageFix" result="shape"/>
<feColorMatrix in="SourceAlpha" type="matrix" values="0 0 0 0 0 0 0 0 0 0 0 0 0 0 0 0 0 0 127 0" result="hardAlpha"/>
<feOffset dy="4"/>
<feGaussianBlur stdDeviation="2"/>
<feComposite in2="hardAlpha" operator="arithmetic" k2="-1" k3="1"/>
<feColorMatrix type="matrix" values="0 0 0 0 0 0 0 0 0 0 0 0 0 0 0 0 0 0 0.5 0"/>
<feBlend mode="normal" in2="shape" result="effect1_innerShadow_24_126"/>
</filter>
</defs>
</svg>
